<?xml version="1.0" encoding="UTF-8" standalone="no"?>
<svg
   width="125"
   height="125"
   viewBox="0 0 125 125"
   fill="none"
   version="1.1"
   id="svg918"
   sodipodi:docname="icon_socialmedia_instagram.svg"
   inkscape:version="1.1.2 (0a00cf5339, 2022-02-04)"
   xmlns:inkscape="http://www.inkscape.org/namespaces/inkscape"
   xmlns:sodipodi="http://sodipodi.sourceforge.net/DTD/sodipodi-0.dtd"
   xmlns="http://www.w3.org/2000/svg"
   xmlns:svg="http://www.w3.org/2000/svg">
  <sodipodi:namedview
     id="namedview920"
     pagecolor="#ffffff"
     bordercolor="#666666"
     borderopacity="1.0"
     inkscape:pageshadow="2"
     inkscape:pageopacity="0.0"
     inkscape:pagecheckerboard="0"
     showgrid="false"
     inkscape:zoom="5.256"
     inkscape:cx="37.290715"
     inkscape:cy="62.5"
     inkscape:window-width="1600"
     inkscape:window-height="849"
     inkscape:window-x="0"
     inkscape:window-y="0"
     inkscape:window-maximized="1"
     inkscape:current-layer="svg918" />
  <g
     clip-path="url(#clip0_4415_109626)"
     id="g895">
    <path
       d="M61.9263 22.0599C44.7917 22.0599 39.7805 22.0776 38.8064 22.1584C35.2901 22.4506 33.1021 23.0043 30.7183 24.1911C28.8812 25.1033 27.4324 26.1608 26.0025 27.643C23.3984 30.3462 21.8202 33.6719 21.2489 37.6251C20.9711 39.5442 20.8903 39.9356 20.8739 49.7383C20.8676 53.0059 20.8739 57.3063 20.8739 63.0744C20.8739 80.1951 20.8928 85.2013 20.9749 86.1735C21.259 89.5951 21.7956 91.7478 22.9319 94.1025C25.1036 98.61 29.2512 101.994 34.1374 103.256C35.8293 103.692 37.6979 103.932 40.0968 104.045C41.1132 104.09 51.4727 104.121 61.8386 104.121C72.2044 104.121 82.5703 104.109 83.5614 104.058C86.3391 103.927 87.952 103.711 89.7354 103.25C94.6532 101.981 98.7251 98.6478 100.941 94.0773C102.055 91.7793 102.62 89.5446 102.876 86.3016C102.931 85.5946 102.955 74.3215 102.955 63.0637C102.955 51.8039 102.93 40.5517 102.874 39.8447C102.615 36.5493 102.05 34.3335 100.9 31.9914C99.9561 30.0742 98.9081 28.6424 97.3867 27.1784C94.6715 24.5851 91.3509 23.0068 87.394 22.4361C85.4767 22.159 85.0948 22.0769 75.2845 22.0599H61.9263Z"
       fill="url(#paint0_radial_4415_109626)"
       id="path889" />
    <path
       d="M61.9263 22.0599C44.7917 22.0599 39.7805 22.0776 38.8064 22.1584C35.2901 22.4506 33.1021 23.0043 30.7183 24.1911C28.8812 25.1033 27.4324 26.1608 26.0025 27.643C23.3984 30.3462 21.8202 33.6719 21.2489 37.6251C20.9711 39.5442 20.8903 39.9356 20.8739 49.7383C20.8676 53.0059 20.8739 57.3063 20.8739 63.0744C20.8739 80.1951 20.8928 85.2013 20.9749 86.1735C21.259 89.5951 21.7956 91.7478 22.9319 94.1025C25.1036 98.61 29.2512 101.994 34.1374 103.256C35.8293 103.692 37.6979 103.932 40.0968 104.045C41.1132 104.09 51.4727 104.121 61.8386 104.121C72.2044 104.121 82.5703 104.109 83.5614 104.058C86.3391 103.927 87.952 103.711 89.7354 103.25C94.6532 101.981 98.7251 98.6478 100.941 94.0773C102.055 91.7793 102.62 89.5446 102.876 86.3016C102.931 85.5946 102.955 74.3215 102.955 63.0637C102.955 51.8039 102.93 40.5517 102.874 39.8447C102.615 36.5493 102.05 34.3335 100.9 31.9914C99.9561 30.0742 98.9081 28.6424 97.3867 27.1784C94.6715 24.5851 91.3509 23.0068 87.394 22.4361C85.4767 22.159 85.0948 22.0769 75.2845 22.0599H61.9263Z"
       fill="url(#paint1_radial_4415_109626)"
       id="path891" />
    <path
       d="M61.9062 32.7919C53.6766 32.7919 52.6439 32.8279 49.4116 32.9749C46.1857 33.1227 43.9838 33.6334 42.0571 34.3827C40.0641 35.1567 38.3735 36.192 36.6892 37.8769C35.0036 39.5612 33.9683 41.2518 33.1918 43.2442C32.4406 45.1715 31.9292 47.3741 31.784 50.5988C31.6394 53.831 31.6016 54.8644 31.6016 63.094C31.6016 71.3235 31.6382 72.3532 31.7846 75.5854C31.933 78.8113 32.4437 81.0133 33.1924 82.94C33.967 84.933 35.0023 86.6236 36.6873 88.3079C38.3709 89.9934 40.0615 91.0313 42.0533 91.8052C43.9812 92.5546 46.1838 93.0653 49.4091 93.213C52.6413 93.3601 53.6735 93.3961 61.9024 93.3961C70.1326 93.3961 71.1622 93.3601 74.3945 93.213C77.6204 93.0653 79.8249 92.5546 81.7528 91.8052C83.7452 91.0313 85.4333 89.9934 87.1169 88.3079C88.8025 86.6236 89.8378 84.933 90.6143 82.9406C91.3592 81.0133 91.8706 78.8107 92.0221 75.586C92.1673 72.3538 92.2052 71.3235 92.2052 63.094C92.2052 54.8644 92.1673 53.8316 92.0221 50.5994C91.8706 47.3735 91.3592 45.1715 90.6143 43.2448C89.8378 41.2518 88.8025 39.5612 87.1169 37.8769C85.4314 36.1914 83.7458 35.1561 81.7509 34.3827C79.8192 33.6334 77.616 33.1227 74.39 32.9749C71.1578 32.8279 70.1288 32.7919 61.8967 32.7919H61.9062ZM59.1878 38.2526C59.9946 38.2513 60.8949 38.2526 61.9062 38.2526C69.9969 38.2526 70.9558 38.2816 74.1508 38.4268C77.1052 38.5619 78.7087 39.0556 79.7769 39.4703C81.191 40.0196 82.1991 40.6761 83.2591 41.7367C84.3197 42.7972 84.9762 43.8073 85.5267 45.2214C85.9415 46.2883 86.4358 47.8918 86.5702 50.8462C86.7154 54.0406 86.747 55.0002 86.747 63.087C86.747 71.1739 86.7154 72.1335 86.5702 75.3278C86.4351 78.2823 85.9415 79.8858 85.5267 80.9527C84.9775 82.3668 84.3197 83.3737 83.2591 84.4336C82.1985 85.4942 81.1916 86.1507 79.7769 86.7C78.71 87.1166 77.1052 87.609 74.1508 87.7441C70.9564 87.8893 69.9969 87.9209 61.9062 87.9209C53.8149 87.9209 52.856 87.8893 49.6616 87.7441C46.7072 87.6078 45.1037 87.1141 44.0349 86.6993C42.6208 86.1501 41.6107 85.4936 40.5502 84.433C39.4896 83.3724 38.833 82.3649 38.2825 80.9501C37.8678 79.8832 37.3735 78.2798 37.239 75.3253C37.0938 72.131 37.0648 71.1714 37.0648 63.0795C37.0648 54.9875 37.0938 54.033 37.239 50.8387C37.3741 47.8842 37.8678 46.2807 38.2825 45.2126C38.8318 43.7985 39.4896 42.7884 40.5502 41.7278C41.6107 40.6673 42.6208 40.0107 44.0349 39.4602C45.103 39.0436 46.7072 38.5512 49.6616 38.4154C52.457 38.2892 53.5403 38.2513 59.1878 38.245V38.2526ZM78.0812 43.284C76.0737 43.284 74.445 44.9108 74.445 46.919C74.445 48.9265 76.0737 50.5552 78.0812 50.5552C80.0887 50.5552 81.7175 48.9265 81.7175 46.919C81.7175 44.9115 80.0887 43.2827 78.0812 43.2827V43.284ZM61.9062 47.5326C53.3124 47.5326 46.3448 54.5002 46.3448 63.094C46.3448 71.6878 53.3124 78.6522 61.9062 78.6522C70.5 78.6522 77.4651 71.6878 77.4651 63.094C77.4651 54.5002 70.4994 47.5326 61.9056 47.5326H61.9062ZM61.9062 52.9933C67.4843 52.9933 72.0069 57.5152 72.0069 63.094C72.0069 68.6721 67.4843 73.1947 61.9062 73.1947C56.3275 73.1947 51.8055 68.6721 51.8055 63.094C51.8055 57.5152 56.3275 52.9933 61.9062 52.9933V52.9933Z"
       fill="white"
       id="path893" />
  </g>
  <defs
     id="defs916">
    <radialGradient
       id="paint0_radial_4415_109626"
       cx="0"
       cy="0"
       r="1"
       gradientUnits="userSpaceOnUse"
       gradientTransform="translate(42.6747 110.442) rotate(-90) scale(81.3288 75.6628)">
      <stop
         stop-color="#FFDD55"
         id="stop897" />
      <stop
         offset="0.1"
         stop-color="#FFDD55"
         id="stop899" />
      <stop
         offset="0.5"
         stop-color="#FF543E"
         id="stop901" />
      <stop
         offset="1"
         stop-color="#C837AB"
         id="stop903" />
    </radialGradient>
    <radialGradient
       id="paint1_radial_4415_109626"
       cx="0"
       cy="0"
       r="1"
       gradientUnits="userSpaceOnUse"
       gradientTransform="translate(7.12165 27.9714) rotate(78.6776) scale(36.3547 149.893)">
      <stop
         stop-color="#3771C8"
         id="stop906" />
      <stop
         offset="0.128"
         stop-color="#3771C8"
         id="stop908" />
      <stop
         offset="0.567708"
         stop-color="#6600FF"
         stop-opacity="0"
         id="stop910" />
    </radialGradient>
    <clipPath
       id="clip0_4415_109626">
      <rect
         width="83.3333"
         height="83.3308"
         fill="white"
         transform="translate(20.2383 21.4286)"
         id="rect913" />
    </clipPath>
  </defs>
</svg>
