<svg width="125" height="125" viewBox="0 0 125 125" fill="none" xmlns="http://www.w3.org/2000/svg">
<path fill-rule="evenodd" clip-rule="evenodd" d="M20.2383 60.3268V63.0562C20.3238 63.3974 20.3238 64.7621 20.3238 65.1886C20.922 72.8652 23.4007 79.4329 27.6742 85.6594L30.7511 89.583C30.922 89.8389 31.093 90.0095 31.2639 90.1801L33.828 92.7389C36.6485 95.1272 37.5032 95.8949 40.922 97.8567C44.4263 99.989 49.8109 102.036 54.5973 102.804V73.377H44.5973V61.9474H54.6827C54.7682 58.6209 54.5118 52.1385 54.9391 49.2384C55.7084 44.9737 57.5887 41.9884 60.2383 39.7707C62.375 37.9795 65.452 36.7853 68.2725 36.3589C72.2896 35.8471 76.4776 36.4442 80.4947 36.8706C80.5802 37.0412 80.5802 37.2971 80.5802 37.4677C80.5802 39.0883 80.6656 46.9355 80.5802 47.5325H74.9391C73.4861 47.4472 72.0331 47.959 71.093 48.7267C68.7853 50.5179 69.1272 54.015 69.1272 56.8297C69.1272 58.5356 69.1272 60.2415 69.1272 61.8621H80.5802L78.6143 73.2917H69.1272V102.718C75.7938 101.61 83.0588 98.3684 88.1015 94.189C89.3836 93.1654 90.5802 92.0566 91.6913 90.9477C98.4434 84.1241 103.059 74.3152 103.486 64.3357C103.486 64.1651 103.486 63.9092 103.572 63.7386V60.668C103.486 60.3268 103.486 58.7915 103.401 58.2797C102.973 53.5885 101.777 48.4708 99.7255 44.3766C99.1272 43.1825 98.6143 42.1589 98.0161 41.0501C97.0759 39.4295 95.1101 36.5295 93.9135 35.1647L91.5203 32.5206C85.5374 26.2941 76.8195 21.944 68.1015 20.6646C67.3323 20.5793 66.5631 20.494 65.7938 20.4087C65.3665 20.4087 63.7426 20.3234 63.4861 20.2381H60.4092C60.1528 20.3234 58.5289 20.4087 58.0161 20.4087C57.2468 20.494 56.5631 20.5793 55.7938 20.6646C52.0332 21.1763 47.5887 22.5411 44.2554 24.1617C41.7767 25.3558 40.1528 26.2941 37.9306 27.8294C36.9049 28.5117 36.0502 29.2794 35.1101 30.047C34.8537 30.2176 34.6827 30.3882 34.4263 30.6441L33.1443 31.8382C32.8879 32.0941 32.8024 32.1794 32.546 32.4353C31.9477 33.0324 30.6656 34.3118 30.1528 35.0794C29.8109 35.5059 29.3836 36.0177 29.0417 36.4442C28.6998 36.9559 28.3579 37.3824 28.0161 37.8942C26.734 39.6854 25.3665 41.9884 24.3408 44.206C22.2896 48.7267 21.0075 52.9061 20.5802 57.9385C20.5802 58.4503 20.4947 59.9856 20.4092 60.2415L20.2383 60.3268Z" fill="#1778F1"/>
<path fill-rule="evenodd" clip-rule="evenodd" d="M54.6836 102.889C55.6238 103.06 56.6494 103.231 57.5896 103.316C58.1024 103.401 58.6153 103.401 59.1281 103.486C59.47 103.486 60.4956 103.486 60.6665 103.572H63.2306C63.4871 103.486 65.7093 103.401 66.1366 103.316C67.0768 103.231 68.017 103.06 68.9571 102.889V73.4625H78.4443L80.4101 62.033H68.9571C68.9571 60.3271 68.9571 58.6212 68.9571 57.0006C68.9571 54.1858 68.6153 50.6887 70.923 48.8975C71.8631 48.2152 73.3161 47.7034 74.7691 47.7034C75.111 47.5328 79.5554 47.6181 80.4101 47.6181V36.9562C76.4785 36.5298 72.2905 35.8474 68.1879 36.4445C65.2819 36.8709 62.2905 37.9798 60.1537 39.8563C57.5041 42.0739 55.6238 44.974 54.8546 49.324C54.3418 52.2241 54.5982 58.7065 54.5982 62.033H44.5127V73.4625H54.5127V102.889H54.6836Z" fill="white"/>
<path fill-rule="evenodd" clip-rule="evenodd" d="M74.853 47.6178H80.4941C80.5795 47.0208 80.4941 39.1736 80.4941 37.553C80.4941 37.2971 80.4941 37.0412 80.4086 36.9559V47.6178C79.5539 47.6178 75.1095 47.5325 74.7676 47.7031L74.853 47.6178Z" fill="#C3C8CF"/>
</svg>
