<svg width="125" height="125" viewBox="0 0 125 125" fill="none" xmlns="http://www.w3.org/2000/svg">
<g clip-path="url(#clip0_6700_179364)">
<path fill-rule="evenodd" clip-rule="evenodd" d="M62.566 17.8571C87.2873 17.8571 107.275 37.8445 107.275 62.5657C107.275 87.287 87.2873 107.274 62.566 107.274C37.8448 107.274 17.8574 87.287 17.8574 62.5657C17.8574 37.8445 37.8448 17.8571 62.566 17.8571Z" fill="#0088CC"/>
<path fill-rule="evenodd" clip-rule="evenodd" d="M75.4529 49.9421C67.5631 57.1744 58.8844 64.1437 51.5206 71.7704C51.1262 71.9019 50.7317 79.7917 50.6002 80.9751C50.6002 81.5011 50.4687 81.5011 50.3372 81.3696C48.7592 76.7673 47.3128 72.2964 45.7348 67.694C45.6033 67.4311 45.8663 67.0366 46.2608 66.7736L74.5324 49.0216C74.9269 48.7586 75.4529 48.6271 75.7159 49.0216C75.9789 49.4161 75.7159 49.6791 75.4529 49.9421ZM29.6923 61.3822C29.2978 61.6452 29.2978 62.0397 29.8238 62.3027L43.4994 67.957L48.8907 83.605C49.2852 84.657 49.6797 85.0515 50.4687 85.183C51.3892 85.3145 51.9151 84.7885 52.1781 84.657L59.4104 77.9507C59.5419 77.9507 59.5419 77.8192 59.6734 77.9507L73.349 87.9444C74.1379 88.3389 75.1899 88.3389 75.9789 87.8129C76.7679 87.2869 77.1623 86.498 77.1623 85.972L86.1041 43.7618C86.2356 42.9728 86.2356 42.0523 85.7096 41.3949C84.9206 40.6059 84.0001 40.4744 82.9482 40.6059L56.5175 50.9941C52.7041 52.572 31.6648 60.1988 29.8238 61.6452L29.6923 61.3822Z" fill="#FEFEFE"/>
</g>
<defs>
<clipPath id="clip0_6700_179364">
<rect width="89.2857" height="89.2857" fill="white" transform="translate(17.8574 17.8571)"/>
</clipPath>
</defs>
</svg>
