<svg width="125" height="125" viewBox="0 0 125 125" fill="none" xmlns="http://www.w3.org/2000/svg">
<path fill-rule="evenodd" clip-rule="evenodd" d="M20.2383 47.4023V76.7519C20.9617 78.3423 21.251 80.5109 22.1191 82.1013C24.4339 86.5833 28.7742 90.0532 34.2718 91.0652C40.0589 92.2219 55.2499 91.3544 62.0496 91.3544C68.7047 91.3544 84.185 92.0773 89.8274 90.9207C93.589 90.1978 97.0612 87.8845 98.942 85.8604C99.9547 84.7037 100.967 83.258 101.835 81.6676C102.559 80.0772 102.993 77.9085 103.572 76.3181V47.836C102.848 45.9565 102.848 44.2215 101.98 42.1974C99.9547 37.86 95.4698 33.9564 90.2614 32.7997C84.7637 31.6431 68.8494 32.366 62.1943 32.366C55.6839 32.366 39.4802 31.6431 34.1272 32.7997C28.9188 33.9564 24.4339 37.2817 22.1191 41.9082C21.3957 43.4986 21.1063 45.6673 20.383 47.2577L20.2383 47.4023Z" fill="#F61C0D"/>
<path fill-rule="evenodd" clip-rule="evenodd" d="M50.764 73.86C52.9341 74.2938 60.7466 69.5227 63.3508 68.5106C65.3762 67.6431 67.257 66.7756 69.4272 65.619C70.4399 65.0407 71.3079 64.607 72.4653 64.1732C78.3971 61.5708 73.7674 61.137 63.3508 55.7876C61.1806 54.631 52.9341 49.7153 50.9086 50.0044C50.3299 51.5948 50.3299 71.9805 50.9086 73.7155L50.764 73.86Z" fill="white"/>
</svg>
