<svg width="125" height="125" viewBox="0 0 125 125" fill="none" xmlns="http://www.w3.org/2000/svg">
<g clip-path="url(#clip0_4415_109636)">
<path fill-rule="evenodd" clip-rule="evenodd" d="M20.2508 86.0677V87.2964C26.8708 92.4996 38.6439 95.8598 49.4641 95.3833C75.593 94.2173 94.6255 73.2415 95.2022 47.9024C95.29 44.279 96.0422 45.4701 99.0639 42.4359C100.631 40.8687 101.81 38.7999 103.427 37.0446V35.841C101.308 34.5245 100.719 35.7783 97.8477 36.493C98.6125 35.1389 101.91 31.1268 100.857 29.058C98.951 27.052 92.7824 34.4869 88.344 31.202C75.9566 22.0368 58.5164 30.0987 59.5696 47.5012C50.3793 46.6863 39.5717 42.2353 33.5786 36.4177C32.8138 35.6655 28.087 30.387 27.272 30.3745C24.3256 31.3901 23.4229 37.9599 23.6486 41.2197C23.962 45.6456 25.7299 48.755 27.5855 51.4632C25.6296 50.7485 23.7865 49.081 23.4856 52.3408C23.2599 54.8359 24.6516 58.4593 25.7173 60.5406C27.0338 63.1234 29.09 65.8316 31.7982 66.9475L29.4536 67.4239C29.0524 70.7966 32.3248 74.6081 33.8419 76.075C37.5656 79.6609 38.9197 79.1844 42.0291 80.8018C40.512 82.4192 35.0455 84.2999 32.1242 84.9142C25.6672 86.2558 22.2443 84.6384 20.2383 86.0677H20.2508Z" fill="#72A1FB"/>
</g>
<defs>
<clipPath id="clip0_4415_109636">
<rect width="83.3333" height="69.0476" fill="white" transform="translate(20.2383 27.381)"/>
</clipPath>
</defs>
</svg>
