<svg width="24" height="25" viewBox="0 0 24 25" fill="none" xmlns="http://www.w3.org/2000/svg">
<g clip-path="url(#clip0_246_4)">
<path d="M21 8.16586V5.88586C21 4.78586 20.1 3.88586 19 3.88586H5C3.89 3.88586 3 4.78586 3 5.88586V19.8859C3 20.9859 3.89 21.8859 5 21.8859H19C20.1 21.8859 21 20.9859 21 19.8859V17.6059C21.59 17.2559 22 16.6259 22 15.8859V9.88586C22 9.14586 21.59 8.51586 21 8.16586ZM20 9.88586V15.8859H13V9.88586H20ZM5 19.8859V5.88586H19V7.88586H13C11.9 7.88586 11 8.78586 11 9.88586V15.8859C11 16.9859 11.9 17.8859 13 17.8859H19V19.8859H5Z" fill="white"/>
<path d="M16 14.3859C16.8284 14.3859 17.5 13.7143 17.5 12.8859C17.5 12.0574 16.8284 11.3859 16 11.3859C15.1716 11.3859 14.5 12.0574 14.5 12.8859C14.5 13.7143 15.1716 14.3859 16 14.3859Z" fill="white"/>
</g>
<defs>
<clipPath id="clip0_246_4">
<rect width="24" height="24" fill="white" transform="translate(0 0.885864)"/>
</clipPath>
</defs>
</svg>
